<svg width="63" height="63" viewBox="0 0 63 63" fill="none" xmlns="http://www.w3.org/2000/svg">
<path d="M39.9057 54.5925C52.6603 49.9502 59.2367 35.8472 54.5943 23.0925C49.952 10.3379 35.849 3.76154 23.0943 8.40385C10.3397 13.0462 3.76334 27.1492 8.40565 39.9039C13.048 52.6585 27.151 59.2349 39.9057 54.5925Z" stroke="#955B32" stroke-width="2.27151"/>
<path d="M44.5524 24.5733C44.4154 24.1971 44.2057 23.8514 43.9352 23.5562C43.6646 23.2609 43.3386 23.0219 42.9756 22.8526C42.6127 22.6834 42.2201 22.5874 41.82 22.5698C41.4199 22.5523 41.0204 22.6139 40.644 22.7508L33.4106 25.3836C33.3653 25.4 33.3168 25.4054 33.269 25.3994C33.2212 25.3934 33.1755 25.3763 33.1357 25.3492C33.0959 25.3222 33.063 25.2861 33.0397 25.2439C33.0166 25.2017 33.0037 25.1546 33.0021 25.1066C33.0512 23.2726 32.6231 21.4572 31.7597 19.8384C30.2117 17.6826 28.5312 17.5089 27.47 18.0703C26.9551 18.3636 26.5646 18.834 26.3711 19.394C26.1778 19.9541 26.1949 20.5654 26.4192 21.1138C27.5646 24.2611 26.376 28.5878 24.7411 30.8898C24.6839 30.9702 24.6472 31.0636 24.6338 31.1616C24.6207 31.2594 24.6316 31.3592 24.6654 31.452L28.8855 43.0466C28.9339 43.1798 29.0273 43.2919 29.1492 43.3637C29.2713 43.4356 29.4146 43.4628 29.5545 43.4405C29.9926 43.3705 30.3914 43.3111 30.7693 43.258C32.4453 43.064 34.092 42.6699 35.6741 42.0841L43.1242 39.3724C45.3673 38.556 45.2443 37.173 44.9731 36.4281C44.8295 36.0327 44.5965 35.676 44.2925 35.3855C44.7862 34.8584 45.0521 34.158 45.0324 33.436C45.0127 32.7141 44.709 32.0292 44.1872 31.5298C44.5333 31.1595 44.7704 30.7005 44.8717 30.2038C44.9732 29.707 44.9352 29.192 44.762 28.7155C44.6065 28.2859 44.3451 27.9025 44.0019 27.6007C44.3538 27.1902 44.5902 26.6936 44.687 26.1616C44.7837 25.6296 44.7373 25.0815 44.5524 24.5733Z" fill="#955B32"/>
<path d="M22.9576 32.1104C22.847 31.8065 22.6201 31.5589 22.3269 31.4221C22.0338 31.2854 21.6983 31.2708 21.3942 31.3814L17.6692 32.7373C17.3653 32.8479 17.1177 33.0747 16.9809 33.3679C16.8442 33.6611 16.8297 33.9965 16.9403 34.3006L21.5291 46.9083C21.6397 47.2124 21.8667 47.46 22.1598 47.5966C22.453 47.7333 22.7885 47.748 23.0924 47.6373L26.8175 46.2816C27.1215 46.1709 27.3691 45.944 27.5057 45.6509C27.6424 45.3577 27.6571 45.0222 27.5465 44.7183L22.9576 32.1104ZM25.0971 43.3382C25.1591 43.5082 25.1692 43.6927 25.1262 43.8685C25.0831 44.0443 24.9889 44.2033 24.8556 44.3255C24.7222 44.4477 24.5555 44.5276 24.3767 44.5553C24.1979 44.5827 24.0149 44.5567 23.8509 44.4801C23.6869 44.4037 23.5494 44.2804 23.4555 44.1256C23.3617 43.971 23.3157 43.792 23.3237 43.6111C23.3316 43.4304 23.3928 43.2561 23.4998 43.1101C23.6069 42.9642 23.7546 42.8533 23.9247 42.7915C24.1527 42.7085 24.4042 42.7194 24.6242 42.8219C24.8441 42.9245 25.0142 43.1103 25.0971 43.3382Z" fill="#955B32"/>
</svg>
