<svg width="16" height="15" viewBox="0 0 16 15" fill="none" xmlns="http://www.w3.org/2000/svg">
<path d="M7.0461 0.345492C7.19577 -0.115163 7.84748 -0.115164 7.99715 0.345491L9.42999 4.75532C9.49693 4.96133 9.68891 5.10081 9.90552 5.10081H14.5423C15.0267 5.10081 15.228 5.72062 14.8362 6.00532L11.085 8.73075C10.9097 8.85807 10.8364 9.08375 10.9033 9.28976L12.3362 13.6996C12.4858 14.1602 11.9586 14.5433 11.5667 14.2586L7.81552 11.5332C7.64027 11.4059 7.40298 11.4059 7.22773 11.5332L3.47651 14.2586C3.08465 14.5433 2.55741 14.1602 2.70709 13.6996L4.13993 9.28976C4.20686 9.08375 4.13353 8.85807 3.95829 8.73075L0.207066 6.00532C-0.184791 5.72062 0.0165965 5.10081 0.500958 5.10081H5.13773C5.35434 5.10081 5.54632 4.96133 5.61326 4.75532L7.0461 0.345492Z" fill="#E0E0E0"/>
</svg>
