<svg width="19" height="23" viewBox="0 0 19 23" fill="none" xmlns="http://www.w3.org/2000/svg">
<path d="M15.8693 12.2312C15.8808 11.3496 16.1186 10.4852 16.5605 9.71849C17.0023 8.95173 17.6339 8.3075 18.3966 7.84576C17.9121 7.16433 17.273 6.60355 16.53 6.20794C15.7869 5.81233 14.9605 5.59281 14.1163 5.56679C12.3154 5.38063 10.5695 6.62811 9.65179 6.62811C8.71633 6.62811 7.30338 5.58528 5.78188 5.61611C4.79772 5.64742 3.83859 5.92928 2.99792 6.43421C2.15726 6.93914 1.46373 7.64992 0.984924 8.49731C-1.08918 12.0339 0.457914 17.2316 2.44473 20.0904C3.43878 21.4902 4.60054 23.0539 6.12067 22.9984C7.60822 22.9377 8.16378 22.0642 9.95938 22.0642C11.7383 22.0642 12.2595 22.9984 13.8105 22.9632C15.4067 22.9376 16.4124 21.5571 17.3716 20.144C18.0858 19.1466 18.6354 18.0442 19 16.8777C18.0726 16.4914 17.2813 15.8448 16.7245 15.0185C16.1678 14.1922 15.8704 13.2228 15.8693 12.2312Z" fill="white"/>
<path d="M12.9398 3.68683C13.8101 2.65786 14.2388 1.3353 14.135 0C12.8054 0.13754 11.5771 0.763407 10.6951 1.7529C10.2638 2.23629 9.93348 2.79865 9.72302 3.40784C9.51256 4.01703 9.42607 4.6611 9.4685 5.30323C10.1336 5.30998 10.7915 5.16801 11.3928 4.88802C11.9941 4.60803 12.523 4.19732 12.9398 3.68683Z" fill="white"/>
</svg>
