<svg width="91" height="20" viewBox="0 0 91 20" fill="none" xmlns="http://www.w3.org/2000/svg">
<path d="M9.59619 12.1696H3.91629L2.55227 16.2324H0.146484L5.5264 1.20117H8.02593L13.4058 16.2324H10.959L9.59619 12.1696ZM4.50455 10.2949H9.00681L6.78735 3.70128H6.72523L4.50455 10.2949Z" fill="white"/>
<path d="M25.0247 10.753C25.0247 14.1586 23.2177 16.3466 20.4909 16.3466C19.8001 16.383 19.1131 16.2225 18.5086 15.8834C17.9041 15.5443 17.4064 15.0404 17.0726 14.4292H17.021V19.8573H14.791V5.27294H16.9496V7.09569H16.9906C17.3397 6.48748 17.8458 5.98613 18.4549 5.64497C19.0641 5.30382 19.7535 5.13562 20.4499 5.15827C23.2071 5.15828 25.0247 7.35692 25.0247 10.753ZM22.7326 10.753C22.7326 8.53428 21.5959 7.0756 19.8616 7.0756C18.1577 7.0756 17.0117 8.565 17.0117 10.753C17.0117 12.9611 18.1577 14.4399 19.8616 14.4399C21.5959 14.4399 22.7326 12.9919 22.7326 10.753Z" fill="white"/>
<path d="M36.9817 10.753C36.9817 14.1586 35.1748 16.3466 32.4479 16.3466C31.7571 16.383 31.0702 16.2225 30.4656 15.8834C29.8611 15.5443 29.3634 15.0404 29.0297 14.4292H28.9781V19.8573H26.748V5.27292H28.9066V7.09568H28.9476C29.2967 6.48747 29.8028 5.98612 30.4119 5.64497C31.0211 5.30381 31.7105 5.13561 32.4069 5.15827C35.1642 5.15827 36.9817 7.35691 36.9817 10.753ZM34.6896 10.753C34.6896 8.53427 33.5529 7.07558 31.8186 7.07558C30.1148 7.07558 28.9687 8.56499 28.9687 10.753C28.9687 12.9611 30.1148 14.4399 31.8186 14.4399C33.553 14.4399 34.6896 12.9918 34.6896 10.753H34.6896Z" fill="white"/>
<path d="M44.8843 12.045C45.0496 13.5356 46.4851 14.5143 48.4467 14.5143C50.3264 14.5143 51.6787 13.5355 51.6787 12.1915C51.6787 11.0248 50.8631 10.3262 48.9319 9.84744L47.0007 9.37816C44.2645 8.71147 42.9942 7.42065 42.9942 5.32602C42.9942 2.73255 45.2347 0.951172 48.4163 0.951172C51.565 0.951172 53.7235 2.73255 53.7962 5.32602H51.545C51.4103 3.82597 50.181 2.92051 48.3846 2.92051C46.5882 2.92051 45.3589 3.83662 45.3589 5.16999C45.3589 6.23267 46.144 6.85799 48.0647 7.33668L49.7064 7.74331C52.7637 8.47265 54.034 9.71149 54.034 11.9101C54.034 14.7222 51.8134 16.4835 48.2815 16.4835C44.9769 16.4835 42.7457 14.7636 42.6016 12.0449L44.8843 12.045Z" fill="white"/>
<path d="M58.8475 2.68262V5.27608H60.9135V7.05746H58.8475V13.099C58.8475 14.0376 59.2612 14.475 60.1694 14.475C60.4146 14.4706 60.6595 14.4533 60.9029 14.4229V16.1936C60.4946 16.2706 60.0796 16.3055 59.6643 16.2977C57.4648 16.2977 56.607 15.4643 56.607 13.3389V7.05746H55.0273V5.27608H56.6069V2.68262H58.8475Z" fill="white"/>
<path d="M62.1094 10.7535C62.1094 7.30541 64.1226 5.13867 67.262 5.13867C70.4119 5.13867 72.4157 7.30536 72.4157 10.7535C72.4157 14.2111 70.4224 16.3683 67.262 16.3683C64.1026 16.3683 62.1094 14.2111 62.1094 10.7535ZM70.1435 10.7535C70.1435 8.38818 69.0689 6.99216 67.2619 6.99216C65.455 6.99216 64.3816 8.39882 64.3816 10.7535C64.3816 13.1283 65.455 14.5137 67.2619 14.5137C69.0689 14.5137 70.1434 13.1283 70.1434 10.7535H70.1435Z" fill="white"/>
<path d="M74.2539 5.27283H76.3808V7.13812H76.4324C76.5763 6.55555 76.9146 6.04071 77.3905 5.68014C77.8664 5.31957 78.4509 5.13525 79.0456 5.15815C79.3026 5.15725 79.5589 5.1854 79.8096 5.24209V7.34617C79.4852 7.24617 79.1468 7.20025 78.8077 7.21024C78.4837 7.19698 78.1607 7.2546 77.8609 7.37914C77.5611 7.50367 77.2916 7.69218 77.0708 7.93172C76.8501 8.17125 76.6833 8.45614 76.582 8.76682C76.4807 9.07751 76.4472 9.40662 76.4839 9.73158V16.2318H74.2539L74.2539 5.27283Z" fill="white"/>
<path d="M90.0931 13.0136C89.7931 15.003 87.8724 16.3683 85.4151 16.3683C82.2546 16.3683 80.293 14.2323 80.293 10.8055C80.293 7.36806 82.2652 5.13867 85.3213 5.13867C88.3271 5.13867 90.2173 7.22147 90.2173 10.5443V11.315H82.5441V11.4509C82.5087 11.8542 82.5587 12.2605 82.6909 12.6429C82.8231 13.0252 83.0345 13.3747 83.3109 13.6683C83.5873 13.9619 83.9225 14.1928 84.2942 14.3457C84.6658 14.4986 85.0655 14.5699 85.4666 14.555C85.9936 14.6048 86.5225 14.4817 86.9745 14.204C87.4265 13.9263 87.7776 13.5088 87.9756 13.0136L90.0931 13.0136ZM82.5546 9.74283H87.9861C88.0061 9.38019 87.9516 9.01729 87.826 8.6769C87.7004 8.33651 87.5064 8.02599 87.2562 7.76482C87.0059 7.50365 86.7049 7.29747 86.372 7.15921C86.039 7.02096 85.6813 6.95362 85.3213 6.96142C84.9582 6.95924 84.5982 7.02962 84.2622 7.16851C83.9261 7.3074 83.6207 7.51204 83.3635 7.77063C83.1062 8.02922 82.9023 8.33664 82.7635 8.67514C82.6247 9.01364 82.5537 9.37652 82.5546 9.74284V9.74283Z" fill="white"/>
</svg>
