<svg width="20" height="21" viewBox="0 0 20 21" fill="none" xmlns="http://www.w3.org/2000/svg">
<path d="M0.401014 0.32498C0.148973 0.576438 0 0.966688 0 1.47205V19.5281C0 20.0342 0.148973 20.4237 0.401014 20.6751L0.465106 20.7339L11.1955 10.6193V10.5001V10.3809L0.465106 0.265381L0.401014 0.32498Z" fill="url(#paint0_linear_6204_8833)"/>
<path d="M14.773 13.9918L11.1968 10.6191V10.4999V10.3807L14.7739 7.00891L14.8544 7.05218L19.0923 9.32184C20.3032 9.97008 20.3032 11.0306 19.0923 11.6797L14.8544 13.9493L14.773 13.9918Z" fill="url(#paint1_linear_6204_8833)"/>
<path d="M14.8533 13.948L11.1957 10.4994L0.400391 20.6745C0.799672 21.0729 1.45792 21.1219 2.20019 20.7243L14.8533 13.948Z" fill="url(#paint2_linear_6204_8833)"/>
<path d="M14.8539 7.05004L2.20165 0.273732C1.45939 -0.123866 0.801137 -0.0740645 0.401855 0.323534L11.1963 10.4986L14.8539 7.05004Z" fill="url(#paint3_linear_6204_8833)"/>
<path opacity="0.2" d="M14.7728 13.8726L2.20105 20.6056C1.49776 20.982 0.868961 20.9575 0.465349 20.6146L0.400391 20.6758L0.464483 20.7346C0.868095 21.0775 1.4969 21.1028 2.20019 20.7256L14.8525 13.9493L14.7728 13.8726Z" fill="black"/>
<path opacity="0.12" d="M0.401014 20.5567C0.148973 20.3053 0 19.915 0 19.4097V19.5289C0 20.0342 0.148973 20.4245 0.401014 20.6759L0.465972 20.6147L0.401014 20.5567Z" fill="black"/>
<path opacity="0.12" d="M19.0924 11.5583L14.7739 13.8712L14.8545 13.9471L19.0924 11.6775C19.6978 11.3534 20.0001 10.9264 20.0001 10.4994C19.949 10.8856 19.6407 11.2644 19.0924 11.5583Z" fill="black"/>
<path opacity="0.25" d="M2.20081 0.39333L19.091 9.43929C19.6401 9.73321 19.9476 10.112 19.9987 10.499C19.9987 10.072 19.6964 9.64422 19.091 9.3201L2.20081 0.274133C0.989974 -0.374107 0 0.163915 0 1.47101V1.59102C0 0.28393 0.99084 -0.254909 2.20081 0.39333Z" fill="white"/>
<defs>
<linearGradient id="paint0_linear_6204_8833" x1="10.2441" y1="1.28166" x2="-3.43353" y2="15.7919" gradientUnits="userSpaceOnUse">
<stop stop-color="#00A0FF"/>
<stop offset="0.0066" stop-color="#00A1FF"/>
<stop offset="0.2601" stop-color="#00BEFF"/>
<stop offset="0.5122" stop-color="#00D2FF"/>
<stop offset="0.7604" stop-color="#00DFFF"/>
<stop offset="1" stop-color="#00E3FF"/>
</linearGradient>
<linearGradient id="paint1_linear_6204_8833" x1="20.6681" y1="10.4995" x2="-0.289353" y2="10.4995" gradientUnits="userSpaceOnUse">
<stop stop-color="#FFE000"/>
<stop offset="0.4087" stop-color="#FFBD00"/>
<stop offset="0.7754" stop-color="#FFA500"/>
<stop offset="1" stop-color="#FF9C00"/>
</linearGradient>
<linearGradient id="paint2_linear_6204_8833" x1="12.8655" y1="12.3732" x2="-5.68251" y2="32.0503" gradientUnits="userSpaceOnUse">
<stop stop-color="#FF3A44"/>
<stop offset="1" stop-color="#C31162"/>
</linearGradient>
<linearGradient id="paint3_linear_6204_8833" x1="-2.31672" y1="-5.68673" x2="5.9658" y2="3.09987" gradientUnits="userSpaceOnUse">
<stop stop-color="#32A071"/>
<stop offset="0.0685" stop-color="#2DA771"/>
<stop offset="0.4762" stop-color="#15CF74"/>
<stop offset="0.8009" stop-color="#06E775"/>
<stop offset="1" stop-color="#00F076"/>
</linearGradient>
</defs>
</svg>
